<?xml version="1.0" encoding="UTF-8" standalone="no"?>
<!DOCTYPE svg PUBLIC "-//W3C//DTD SVG 1.1//EN"
 "http://www.w3.org/Graphics/SVG/1.1/DTD/svg11.dtd">
<!-- Generated by graphviz version 2.38.0 (20140413.2041)
 -->
<!-- Title: controllers_diagram Pages: 1 -->
<svg width="655pt" height="594pt"
 viewBox="0.00 0.00 654.50 593.50" xmlns="http://www.w3.org/2000/svg" xmlns:xlink="http://www.w3.org/1999/xlink">
<g id="graph0" class="graph" transform="scale(1 1) rotate(0) translate(256.5 356)">
<title>controllers_diagram</title>
<polygon fill="none" stroke="none" points="-256.5,237.5 -256.5,-356 398,-356 398,237.5 -256.5,237.5"/>
<!-- _diagram_info -->
<g id="node1" class="node"><title>_diagram_info</title>
<text text-anchor="start" x="188" y="-243.6" font-family="Times,serif" font-size="13.00">Controllers diagram</text>
<text text-anchor="start" x="188" y="-229.6" font-family="Times,serif" font-size="13.00">Date: Dec 12 2017 &#45; 17:00</text>
<text text-anchor="start" x="188" y="-215.6" font-family="Times,serif" font-size="13.00">Migration version: 20171207103745</text>
<text text-anchor="start" x="188" y="-201.6" font-family="Times,serif" font-size="13.00">Generated by RailRoady 1.5.3</text>
<text text-anchor="start" x="188" y="-187.6" font-family="Times,serif" font-size="13.00">http://railroady.prestonlee.com</text>
</g>
<!-- DescriptionsController -->
<g id="node2" class="node"><title>DescriptionsController</title>
<path fill="none" stroke="black" d="M12,-198.5C12,-198.5 128,-198.5 128,-198.5 134,-198.5 140,-204.5 140,-210.5 140,-210.5 140,-339.5 140,-339.5 140,-345.5 134,-351.5 128,-351.5 128,-351.5 12,-351.5 12,-351.5 6,-351.5 0,-345.5 0,-339.5 0,-339.5 0,-210.5 0,-210.5 0,-204.5 6,-198.5 12,-198.5"/>
<text text-anchor="middle" x="70" y="-336.3" font-family="Times,serif" font-size="14.00">DescriptionsController</text>
<polyline fill="none" stroke="black" points="0,-328.5 140,-328.5 "/>
<text text-anchor="start" x="8" y="-313.3" font-family="Times,serif" font-size="14.00">create</text>
<text text-anchor="start" x="8" y="-298.3" font-family="Times,serif" font-size="14.00">edit</text>
<text text-anchor="start" x="8" y="-283.3" font-family="Times,serif" font-size="14.00">new</text>
<text text-anchor="start" x="8" y="-268.3" font-family="Times,serif" font-size="14.00">update</text>
<polyline fill="none" stroke="black" points="0,-260.5 140,-260.5 "/>
<polyline fill="none" stroke="black" points="0,-236.5 140,-236.5 "/>
<text text-anchor="start" x="8" y="-221.3" font-family="Times,serif" font-size="14.00">_layout</text>
<text text-anchor="start" x="8" y="-206.3" font-family="Times,serif" font-size="14.00">description_params</text>
</g>
<!-- WelcomeController -->
<g id="node3" class="node"><title>WelcomeController</title>
<path fill="none" stroke="black" d="M-240.5,125.5C-240.5,125.5 -139.5,125.5 -139.5,125.5 -133.5,125.5 -127.5,119.5 -127.5,113.5 -127.5,113.5 -127.5,44.5 -127.5,44.5 -127.5,38.5 -133.5,32.5 -139.5,32.5 -139.5,32.5 -240.5,32.5 -240.5,32.5 -246.5,32.5 -252.5,38.5 -252.5,44.5 -252.5,44.5 -252.5,113.5 -252.5,113.5 -252.5,119.5 -246.5,125.5 -240.5,125.5"/>
<text text-anchor="middle" x="-190" y="47.7" font-family="Times,serif" font-size="14.00">WelcomeController</text>
<polyline fill="none" stroke="black" points="-252.5,55.5 -127.5,55.5 "/>
<text text-anchor="start" x="-244.5" y="70.7" font-family="Times,serif" font-size="14.00">index</text>
<polyline fill="none" stroke="black" points="-252.5,78.5 -127.5,78.5 "/>
<polyline fill="none" stroke="black" points="-252.5,102.5 -127.5,102.5 "/>
<text text-anchor="start" x="-244.5" y="117.7" font-family="Times,serif" font-size="14.00">_layout</text>
</g>
<!-- SessionsController -->
<g id="node4" class="node"><title>SessionsController</title>
<path fill="none" stroke="black" d="M-239.5,-0.5C-239.5,-0.5 -144.5,-0.5 -144.5,-0.5 -138.5,-0.5 -132.5,-6.5 -132.5,-12.5 -132.5,-12.5 -132.5,-111.5 -132.5,-111.5 -132.5,-117.5 -138.5,-123.5 -144.5,-123.5 -144.5,-123.5 -239.5,-123.5 -239.5,-123.5 -245.5,-123.5 -251.5,-117.5 -251.5,-111.5 -251.5,-111.5 -251.5,-12.5 -251.5,-12.5 -251.5,-6.5 -245.5,-0.5 -239.5,-0.5"/>
<text text-anchor="middle" x="-192" y="-108.3" font-family="Times,serif" font-size="14.00">SessionsController</text>
<polyline fill="none" stroke="black" points="-251.5,-100.5 -132.5,-100.5 "/>
<text text-anchor="start" x="-243.5" y="-85.3" font-family="Times,serif" font-size="14.00">create</text>
<text text-anchor="start" x="-243.5" y="-70.3" font-family="Times,serif" font-size="14.00">destroy</text>
<text text-anchor="start" x="-243.5" y="-55.3" font-family="Times,serif" font-size="14.00">new</text>
<polyline fill="none" stroke="black" points="-251.5,-47.5 -132.5,-47.5 "/>
<polyline fill="none" stroke="black" points="-251.5,-23.5 -132.5,-23.5 "/>
<text text-anchor="start" x="-243.5" y="-8.3" font-family="Times,serif" font-size="14.00">_layout</text>
</g>
<!-- ApplicationController -->
<g id="node5" class="node"><title>ApplicationController</title>
<path fill="none" stroke="black" d="M120,233C120,233 232,233 232,233 238,233 244,227 244,221 244,221 244,151 244,151 244,145 238,139 232,139 232,139 120,139 120,139 114,139 108,145 108,151 108,151 108,221 108,221 108,227 114,233 120,233"/>
<text text-anchor="middle" x="176" y="154.2" font-family="Times,serif" font-size="14.00">ApplicationController</text>
<polyline fill="none" stroke="black" points="108,162 244,162 "/>
<polyline fill="none" stroke="black" points="108,186 244,186 "/>
<polyline fill="none" stroke="black" points="108,210 244,210 "/>
<text text-anchor="start" x="116" y="225.2" font-family="Times,serif" font-size="14.00">_layout</text>
</g>
<!-- FeedbacksController -->
<g id="node6" class="node"><title>FeedbacksController</title>
<path fill="none" stroke="black" d="M-149.5,-198.5C-149.5,-198.5 -44.5,-198.5 -44.5,-198.5 -38.5,-198.5 -32.5,-204.5 -32.5,-210.5 -32.5,-210.5 -32.5,-309.5 -32.5,-309.5 -32.5,-315.5 -38.5,-321.5 -44.5,-321.5 -44.5,-321.5 -149.5,-321.5 -149.5,-321.5 -155.5,-321.5 -161.5,-315.5 -161.5,-309.5 -161.5,-309.5 -161.5,-210.5 -161.5,-210.5 -161.5,-204.5 -155.5,-198.5 -149.5,-198.5"/>
<text text-anchor="middle" x="-97" y="-306.3" font-family="Times,serif" font-size="14.00">FeedbacksController</text>
<polyline fill="none" stroke="black" points="-161.5,-298.5 -32.5,-298.5 "/>
<text text-anchor="start" x="-153.5" y="-283.3" font-family="Times,serif" font-size="14.00">create</text>
<text text-anchor="start" x="-153.5" y="-268.3" font-family="Times,serif" font-size="14.00">new</text>
<polyline fill="none" stroke="black" points="-161.5,-260.5 -32.5,-260.5 "/>
<polyline fill="none" stroke="black" points="-161.5,-236.5 -32.5,-236.5 "/>
<text text-anchor="start" x="-153.5" y="-221.3" font-family="Times,serif" font-size="14.00">_layout</text>
<text text-anchor="start" x="-153.5" y="-206.3" font-family="Times,serif" font-size="14.00">feedback_params</text>
</g>
<!-- CustomersController -->
<g id="node7" class="node"><title>CustomersController</title>
<path fill="none" stroke="black" d="M120.5,107.5C120.5,107.5 243.5,107.5 243.5,107.5 249.5,107.5 255.5,101.5 255.5,95.5 255.5,95.5 255.5,-123.5 255.5,-123.5 255.5,-129.5 249.5,-135.5 243.5,-135.5 243.5,-135.5 120.5,-135.5 120.5,-135.5 114.5,-135.5 108.5,-129.5 108.5,-123.5 108.5,-123.5 108.5,95.5 108.5,95.5 108.5,101.5 114.5,107.5 120.5,107.5"/>
<text text-anchor="middle" x="182" y="-120.3" font-family="Times,serif" font-size="14.00">CustomersController</text>
<polyline fill="none" stroke="black" points="108.5,-112.5 255.5,-112.5 "/>
<text text-anchor="start" x="116.5" y="-97.3" font-family="Times,serif" font-size="14.00">allocation</text>
<text text-anchor="start" x="116.5" y="-82.3" font-family="Times,serif" font-size="14.00">allot</text>
<text text-anchor="start" x="116.5" y="-67.3" font-family="Times,serif" font-size="14.00">create</text>
<text text-anchor="start" x="116.5" y="-52.3" font-family="Times,serif" font-size="14.00">destroy</text>
<text text-anchor="start" x="116.5" y="-37.3" font-family="Times,serif" font-size="14.00">edit</text>
<text text-anchor="start" x="116.5" y="-22.3" font-family="Times,serif" font-size="14.00">get_or_create_customer</text>
<text text-anchor="start" x="116.5" y="-7.3" font-family="Times,serif" font-size="14.00">index</text>
<text text-anchor="start" x="116.5" y="7.7" font-family="Times,serif" font-size="14.00">new</text>
<text text-anchor="start" x="116.5" y="22.7" font-family="Times,serif" font-size="14.00">show</text>
<text text-anchor="start" x="116.5" y="37.7" font-family="Times,serif" font-size="14.00">update</text>
<polyline fill="none" stroke="black" points="108.5,45.5 255.5,45.5 "/>
<polyline fill="none" stroke="black" points="108.5,69.5 255.5,69.5 "/>
<text text-anchor="start" x="116.5" y="84.7" font-family="Times,serif" font-size="14.00">_layout</text>
<text text-anchor="start" x="116.5" y="99.7" font-family="Times,serif" font-size="14.00">allot_params</text>
</g>
<!-- UsersController -->
<g id="node8" class="node"><title>UsersController</title>
<path fill="none" stroke="black" d="M-78.5,197.5C-78.5,197.5 66.5,197.5 66.5,197.5 72.5,197.5 78.5,191.5 78.5,185.5 78.5,185.5 78.5,-153.5 78.5,-153.5 78.5,-159.5 72.5,-165.5 66.5,-165.5 66.5,-165.5 -78.5,-165.5 -78.5,-165.5 -84.5,-165.5 -90.5,-159.5 -90.5,-153.5 -90.5,-153.5 -90.5,185.5 -90.5,185.5 -90.5,191.5 -84.5,197.5 -78.5,197.5"/>
<text text-anchor="middle" x="-6" y="-150.3" font-family="Times,serif" font-size="14.00">UsersController</text>
<polyline fill="none" stroke="black" points="-90.5,-142.5 78.5,-142.5 "/>
<text text-anchor="start" x="-82.5" y="-127.3" font-family="Times,serif" font-size="14.00">allfeedback</text>
<text text-anchor="start" x="-82.5" y="-112.3" font-family="Times,serif" font-size="14.00">create</text>
<text text-anchor="start" x="-82.5" y="-97.3" font-family="Times,serif" font-size="14.00">current_params</text>
<text text-anchor="start" x="-82.5" y="-82.3" font-family="Times,serif" font-size="14.00">filter</text>
<text text-anchor="start" x="-82.5" y="-67.3" font-family="Times,serif" font-size="14.00">get_multichosen_customers</text>
<text text-anchor="start" x="-82.5" y="-52.3" font-family="Times,serif" font-size="14.00">get_query_params</text>
<text text-anchor="start" x="-82.5" y="-37.3" font-family="Times,serif" font-size="14.00">index</text>
<text text-anchor="start" x="-82.5" y="-22.3" font-family="Times,serif" font-size="14.00">list</text>
<text text-anchor="start" x="-82.5" y="-7.3" font-family="Times,serif" font-size="14.00">list_deep</text>
<text text-anchor="start" x="-82.5" y="7.7" font-family="Times,serif" font-size="14.00">list_potential</text>
<text text-anchor="start" x="-82.5" y="22.7" font-family="Times,serif" font-size="14.00">multi_choice_check</text>
<text text-anchor="start" x="-82.5" y="37.7" font-family="Times,serif" font-size="14.00">multi_choice_degrade</text>
<text text-anchor="start" x="-82.5" y="52.7" font-family="Times,serif" font-size="14.00">multi_choice_improve</text>
<text text-anchor="start" x="-82.5" y="67.7" font-family="Times,serif" font-size="14.00">mylist</text>
<text text-anchor="start" x="-82.5" y="82.7" font-family="Times,serif" font-size="14.00">new</text>
<text text-anchor="start" x="-82.5" y="97.7" font-family="Times,serif" font-size="14.00">query</text>
<text text-anchor="start" x="-82.5" y="112.7" font-family="Times,serif" font-size="14.00">show</text>
<polyline fill="none" stroke="black" points="-90.5,120.5 78.5,120.5 "/>
<polyline fill="none" stroke="black" points="-90.5,144.5 78.5,144.5 "/>
<text text-anchor="start" x="-82.5" y="159.7" font-family="Times,serif" font-size="14.00">_layout</text>
<text text-anchor="start" x="-82.5" y="174.7" font-family="Times,serif" font-size="14.00">query_params</text>
<text text-anchor="start" x="-82.5" y="189.7" font-family="Times,serif" font-size="14.00">user_params</text>
</g>
</g>
</svg>
