<?xml version="1.0" encoding="UTF-8" standalone="no"?>
<!DOCTYPE svg PUBLIC "-//W3C//DTD SVG 1.1//EN"
 "http://www.w3.org/Graphics/SVG/1.1/DTD/svg11.dtd">
<!-- Generated by graphviz version 2.38.0 (20140413.2041)
 -->
<!-- Title: models_diagram Pages: 1 -->
<svg width="781pt" height="230pt"
 viewBox="0.00 0.00 781.34 230.00" xmlns="http://www.w3.org/2000/svg" xmlns:xlink="http://www.w3.org/1999/xlink">
<g id="graph0" class="graph" transform="scale(1 1) rotate(0) translate(4 226)">
<title>models_diagram</title>
<polygon fill="none" stroke="none" points="-4,4 -4,-226 777.343,-226 777.343,4 -4,4"/>
<!-- _diagram_info -->
<g id="node1" class="node"><title>_diagram_info</title>
<text text-anchor="start" x="8" y="-207.6" font-family="Times,serif" font-size="13.00">Models diagram</text>
<text text-anchor="start" x="8" y="-193.6" font-family="Times,serif" font-size="13.00">Date: Dec 12 2017 &#45; 17:00</text>
<text text-anchor="start" x="8" y="-179.6" font-family="Times,serif" font-size="13.00">Migration version: 20171207103745</text>
<text text-anchor="start" x="8" y="-165.6" font-family="Times,serif" font-size="13.00">Generated by RailRoady 1.5.3</text>
<text text-anchor="start" x="8" y="-151.6" font-family="Times,serif" font-size="13.00">http://railroady.prestonlee.com</text>
</g>
<!-- Feedback -->
<g id="node2" class="node"><title>Feedback</title>
<ellipse fill="none" stroke="black" cx="259" cy="-18" rx="44.393" ry="18"/>
<text text-anchor="middle" x="259" y="-14.3" font-family="Times,serif" font-size="14.00">Feedback</text>
</g>
<!-- Description -->
<g id="node3" class="node"><title>Description</title>
<ellipse fill="none" stroke="black" cx="373" cy="-18" rx="51.9908" ry="18"/>
<text text-anchor="middle" x="373" y="-14.3" font-family="Times,serif" font-size="14.00">Description</text>
</g>
<!-- Team -->
<g id="node4" class="node"><title>Team</title>
<ellipse fill="none" stroke="black" cx="335" cy="-183" rx="31.3957" ry="18"/>
<text text-anchor="middle" x="335" y="-179.3" font-family="Times,serif" font-size="14.00">Team</text>
</g>
<!-- Customer -->
<g id="node9" class="node"><title>Customer</title>
<ellipse fill="none" stroke="black" cx="333" cy="-90" rx="45.4919" ry="18"/>
<text text-anchor="middle" x="333" y="-86.3" font-family="Times,serif" font-size="14.00">Customer</text>
</g>
<!-- Team&#45;&gt;Customer -->
<g id="edge1" class="edge"><title>Team&#45;&gt;Customer</title>
<path fill="none" stroke="#e130dc" d="M334.445,-156.729C334.167,-144.118 333.833,-128.905 333.556,-116.292"/>
<ellipse fill="none" stroke="#e130dc" cx="334.536" cy="-160.885" rx="4" ry="4"/>
<ellipse fill="#e130dc" stroke="#e130dc" cx="333.462" cy="-112.039" rx="4" ry="4"/>
</g>
<!-- SnitchRecord -->
<g id="node5" class="node"><title>SnitchRecord</title>
<ellipse fill="none" stroke="black" cx="443" cy="-183" rx="58.4896" ry="18"/>
<text text-anchor="middle" x="443" y="-179.3" font-family="Times,serif" font-size="14.00">SnitchRecord</text>
</g>
<!-- Account -->
<g id="node6" class="node"><title>Account</title>
<ellipse fill="none" stroke="black" cx="560" cy="-183" rx="40.0939" ry="18"/>
<text text-anchor="middle" x="560" y="-179.3" font-family="Times,serif" font-size="14.00">Account</text>
</g>
<!-- ApplicationRecord -->
<g id="node7" class="node"><title>ApplicationRecord</title>
<ellipse fill="none" stroke="black" cx="696" cy="-183" rx="77.1866" ry="18"/>
<text text-anchor="middle" x="696" y="-179.3" font-family="Times,serif" font-size="14.00">ApplicationRecord</text>
</g>
<!-- User -->
<g id="node8" class="node"><title>User</title>
<ellipse fill="none" stroke="black" cx="259" cy="-183" rx="27.0966" ry="18"/>
<text text-anchor="middle" x="259" y="-179.3" font-family="Times,serif" font-size="14.00">User</text>
</g>
<!-- User&#45;&gt;Feedback -->
<g id="edge3" class="edge"><title>User&#45;&gt;Feedback</title>
<path fill="none" stroke="#3b1ba6" d="M259,-156.52C259,-126.6 259,-77.1639 259,-46.4265"/>
<ellipse fill="none" stroke="#3b1ba6" cx="259" cy="-160.864" rx="4" ry="4"/>
<polygon fill="#3b1ba6" stroke="#3b1ba6" points="259,-46.3968 263.5,-36.3967 259,-41.3968 259,-36.3968 259,-36.3968 259,-36.3968 259,-41.3968 254.5,-36.3968 259,-46.3968 259,-46.3968"/>
</g>
<!-- User&#45;&gt;Customer -->
<g id="edge2" class="edge"><title>User&#45;&gt;Customer</title>
<path fill="none" stroke="#dc206c" d="M277.962,-158.682C288.761,-145.402 302.273,-128.786 313.207,-115.34"/>
<polygon fill="#dc206c" stroke="#dc206c" points="277.862,-158.805 268.062,-163.724 274.708,-162.684 271.553,-166.563 271.553,-166.563 271.553,-166.563 274.708,-162.684 275.044,-169.402 277.862,-158.805 277.862,-158.805"/>
<polygon fill="#dc206c" stroke="#dc206c" points="313.325,-115.195 323.125,-110.276 316.479,-111.316 319.634,-107.437 319.634,-107.437 319.634,-107.437 316.479,-111.316 316.143,-104.597 313.325,-115.195 313.325,-115.195"/>
</g>
<!-- Customer&#45;&gt;Feedback -->
<g id="edge4" class="edge"><title>Customer&#45;&gt;Feedback</title>
<path fill="none" stroke="#0712fb" d="M310.258,-67.4874C301.638,-59.3334 291.799,-50.0265 283.062,-41.7613"/>
<ellipse fill="none" stroke="#0712fb" cx="313.302" cy="-70.3671" rx="4.00002" ry="4.00002"/>
<polygon fill="#0712fb" stroke="#0712fb" points="282.99,-41.6933 278.818,-31.5521 279.358,-38.2572 275.725,-34.8212 275.725,-34.8212 275.725,-34.8212 279.358,-38.2572 272.633,-38.0903 282.99,-41.6933 282.99,-41.6933"/>
</g>
<!-- Customer&#45;&gt;Description -->
<g id="edge5" class="edge"><title>Customer&#45;&gt;Description</title>
<path fill="none" stroke="#d8b61a" d="M346.716,-64.9976C350.751,-57.9363 355.166,-50.2103 359.205,-43.1405"/>
<ellipse fill="none" stroke="#d8b61a" cx="344.667" cy="-68.582" rx="4.00002" ry="4.00002"/>
<ellipse fill="#d8b61a" stroke="#d8b61a" cx="361.422" cy="-39.262" rx="4.00002" ry="4.00002"/>
</g>
</g>
</svg>
