<?xml version="1.0" encoding="UTF-8" standalone="no"?>
<!DOCTYPE svg PUBLIC "-//W3C//DTD SVG 1.1//EN"
 "http://www.w3.org/Graphics/SVG/1.1/DTD/svg11.dtd">
<!-- Generated by graphviz version 2.38.0 (20140413.2041)
 -->
<!-- Title: models_diagram Pages: 1 -->
<svg width="1094pt" height="656pt"
 viewBox="0.00 0.00 1094.34 656.00" xmlns="http://www.w3.org/2000/svg" xmlns:xlink="http://www.w3.org/1999/xlink">
<g id="graph0" class="graph" transform="scale(1 1) rotate(0) translate(4 652)">
<title>models_diagram</title>
<polygon fill="none" stroke="none" points="-4,4 -4,-652 1090.34,-652 1090.34,4 -4,4"/>
<!-- _diagram_info -->
<g id="node1" class="node"><title>_diagram_info</title>
<text text-anchor="start" x="8" y="-536.6" font-family="Times,serif" font-size="13.00">Models diagram</text>
<text text-anchor="start" x="8" y="-522.6" font-family="Times,serif" font-size="13.00">Date: Dec 12 2017 &#45; 17:00</text>
<text text-anchor="start" x="8" y="-508.6" font-family="Times,serif" font-size="13.00">Migration version: 20171207103745</text>
<text text-anchor="start" x="8" y="-494.6" font-family="Times,serif" font-size="13.00">Generated by RailRoady 1.5.3</text>
<text text-anchor="start" x="8" y="-480.6" font-family="Times,serif" font-size="13.00">http://railroady.prestonlee.com</text>
</g>
<!-- Feedback -->
<g id="node2" class="node"><title>Feedback</title>
<path fill="none" stroke="black" d="M241.5,-23C241.5,-23 406.5,-23 406.5,-23 412.5,-23 418.5,-29 418.5,-35 418.5,-35 418.5,-147 418.5,-147 418.5,-153 412.5,-159 406.5,-159 406.5,-159 241.5,-159 241.5,-159 235.5,-159 229.5,-153 229.5,-147 229.5,-147 229.5,-35 229.5,-35 229.5,-29 235.5,-23 241.5,-23"/>
<text text-anchor="middle" x="324" y="-143.8" font-family="Times,serif" font-size="14.00">Feedback</text>
<polyline fill="none" stroke="black" points="229.5,-136 418.5,-136 "/>
<text text-anchor="start" x="237.5" y="-120.8" font-family="Times,serif" font-size="14.00">id :bigint(20)</text>
<text text-anchor="start" x="237.5" y="-105.8" font-family="Times,serif" font-size="14.00">feedback_content :varchar(255)</text>
<text text-anchor="start" x="237.5" y="-90.8" font-family="Times,serif" font-size="14.00">crm_user_name :varchar(255)</text>
<text text-anchor="start" x="237.5" y="-75.8" font-family="Times,serif" font-size="14.00">customer_id :bigint(20)</text>
<text text-anchor="start" x="237.5" y="-60.8" font-family="Times,serif" font-size="14.00">user_id :bigint(20)</text>
<text text-anchor="start" x="237.5" y="-45.8" font-family="Times,serif" font-size="14.00">created_at :datetime</text>
<text text-anchor="start" x="237.5" y="-30.8" font-family="Times,serif" font-size="14.00">updated_at :datetime</text>
</g>
<!-- Description -->
<g id="node3" class="node"><title>Description</title>
<path fill="none" stroke="black" d="M448.5,-0.5C448.5,-0.5 579.5,-0.5 579.5,-0.5 585.5,-0.5 591.5,-6.5 591.5,-12.5 591.5,-12.5 591.5,-169.5 591.5,-169.5 591.5,-175.5 585.5,-181.5 579.5,-181.5 579.5,-181.5 448.5,-181.5 448.5,-181.5 442.5,-181.5 436.5,-175.5 436.5,-169.5 436.5,-169.5 436.5,-12.5 436.5,-12.5 436.5,-6.5 442.5,-0.5 448.5,-0.5"/>
<text text-anchor="middle" x="514" y="-166.3" font-family="Times,serif" font-size="14.00">Description</text>
<polyline fill="none" stroke="black" points="436.5,-158.5 591.5,-158.5 "/>
<text text-anchor="start" x="444.5" y="-143.3" font-family="Times,serif" font-size="14.00">id :bigint(20)</text>
<text text-anchor="start" x="444.5" y="-128.3" font-family="Times,serif" font-size="14.00">customer_id :bigint(20)</text>
<text text-anchor="start" x="444.5" y="-113.3" font-family="Times,serif" font-size="14.00">field :varchar(255)</text>
<text text-anchor="start" x="444.5" y="-98.3" font-family="Times,serif" font-size="14.00">scale :varchar(255)</text>
<text text-anchor="start" x="444.5" y="-83.3" font-family="Times,serif" font-size="14.00">job :varchar(255)</text>
<text text-anchor="start" x="444.5" y="-68.3" font-family="Times,serif" font-size="14.00">department :varchar(255)</text>
<text text-anchor="start" x="444.5" y="-53.3" font-family="Times,serif" font-size="14.00">note :varchar(255)</text>
<text text-anchor="start" x="444.5" y="-38.3" font-family="Times,serif" font-size="14.00">level :varchar(255)</text>
<text text-anchor="start" x="444.5" y="-23.3" font-family="Times,serif" font-size="14.00">created_at :datetime</text>
<text text-anchor="start" x="444.5" y="-8.3" font-family="Times,serif" font-size="14.00">updated_at :datetime</text>
</g>
<!-- Team -->
<g id="node4" class="node"><title>Team</title>
<path fill="none" stroke="black" d="M446,-429C446,-429 588,-429 588,-429 594,-429 600,-435 600,-441 600,-441 600,-583 600,-583 600,-589 594,-595 588,-595 588,-595 446,-595 446,-595 440,-595 434,-589 434,-583 434,-583 434,-441 434,-441 434,-435 440,-429 446,-429"/>
<text text-anchor="middle" x="517" y="-579.8" font-family="Times,serif" font-size="14.00">Team</text>
<polyline fill="none" stroke="black" points="434,-572 600,-572 "/>
<text text-anchor="start" x="442" y="-556.8" font-family="Times,serif" font-size="14.00">id :int(11)</text>
<text text-anchor="start" x="442" y="-541.8" font-family="Times,serif" font-size="14.00">subdomain :varchar(32)</text>
<text text-anchor="start" x="442" y="-526.8" font-family="Times,serif" font-size="14.00">name :varchar(64)</text>
<text text-anchor="start" x="442" y="-511.8" font-family="Times,serif" font-size="14.00">logo_url :varchar(255)</text>
<text text-anchor="start" x="442" y="-496.8" font-family="Times,serif" font-size="14.00">email_domain :varchar(32)</text>
<text text-anchor="start" x="442" y="-481.8" font-family="Times,serif" font-size="14.00">created :datetime</text>
<text text-anchor="start" x="442" y="-466.8" font-family="Times,serif" font-size="14.00">updated :datetime</text>
<text text-anchor="start" x="442" y="-451.8" font-family="Times,serif" font-size="14.00">inactive :tinyint(4)</text>
<text text-anchor="start" x="442" y="-436.8" font-family="Times,serif" font-size="14.00">description :varchar(128)</text>
</g>
<!-- Customer -->
<g id="node9" class="node"><title>Customer</title>
<path fill="none" stroke="black" d="M401.5,-218.5C401.5,-218.5 550.5,-218.5 550.5,-218.5 556.5,-218.5 562.5,-224.5 562.5,-230.5 562.5,-230.5 562.5,-327.5 562.5,-327.5 562.5,-333.5 556.5,-339.5 550.5,-339.5 550.5,-339.5 401.5,-339.5 401.5,-339.5 395.5,-339.5 389.5,-333.5 389.5,-327.5 389.5,-327.5 389.5,-230.5 389.5,-230.5 389.5,-224.5 395.5,-218.5 401.5,-218.5"/>
<text text-anchor="middle" x="476" y="-324.3" font-family="Times,serif" font-size="14.00">Customer</text>
<polyline fill="none" stroke="black" points="389.5,-316.5 562.5,-316.5 "/>
<text text-anchor="start" x="397.5" y="-301.3" font-family="Times,serif" font-size="14.00">id :bigint(20)</text>
<text text-anchor="start" x="397.5" y="-286.3" font-family="Times,serif" font-size="14.00">team_id :bigint(20)</text>
<text text-anchor="start" x="397.5" y="-271.3" font-family="Times,serif" font-size="14.00">created_at :datetime</text>
<text text-anchor="start" x="397.5" y="-256.3" font-family="Times,serif" font-size="14.00">updated_at :datetime</text>
<text text-anchor="start" x="397.5" y="-241.3" font-family="Times,serif" font-size="14.00">alloted_or_not :varchar(255)</text>
<text text-anchor="start" x="397.5" y="-226.3" font-family="Times,serif" font-size="14.00">potential_level :int(11)</text>
</g>
<!-- Team&#45;&gt;Customer -->
<g id="edge1" class="edge"><title>Team&#45;&gt;Customer</title>
<path fill="none" stroke="#de001a" d="M501.009,-420.903C496.683,-396.529 492.075,-370.568 488.008,-347.657"/>
<ellipse fill="none" stroke="#de001a" cx="501.73" cy="-424.969" rx="4.00001" ry="4.00001"/>
<ellipse fill="#de001a" stroke="#de001a" cx="487.293" cy="-343.626" rx="4.00001" ry="4.00001"/>
</g>
<!-- SnitchRecord -->
<g id="node5" class="node"><title>SnitchRecord</title>
<ellipse fill="none" stroke="black" cx="676" cy="-512" rx="58.4896" ry="18"/>
<text text-anchor="middle" x="676" y="-508.3" font-family="Times,serif" font-size="14.00">SnitchRecord</text>
</g>
<!-- Account -->
<g id="node6" class="node"><title>Account</title>
<path fill="none" stroke="black" d="M764,-376.5C764,-376.5 902,-376.5 902,-376.5 908,-376.5 914,-382.5 914,-388.5 914,-388.5 914,-635.5 914,-635.5 914,-641.5 908,-647.5 902,-647.5 902,-647.5 764,-647.5 764,-647.5 758,-647.5 752,-641.5 752,-635.5 752,-635.5 752,-388.5 752,-388.5 752,-382.5 758,-376.5 764,-376.5"/>
<text text-anchor="middle" x="833" y="-632.3" font-family="Times,serif" font-size="14.00">Account</text>
<polyline fill="none" stroke="black" points="752,-624.5 914,-624.5 "/>
<text text-anchor="start" x="760" y="-609.3" font-family="Times,serif" font-size="14.00">id :int(11)</text>
<text text-anchor="start" x="760" y="-594.3" font-family="Times,serif" font-size="14.00">name :varchar(255)</text>
<text text-anchor="start" x="760" y="-579.3" font-family="Times,serif" font-size="14.00">avatar_url :varchar(255)</text>
<text text-anchor="start" x="760" y="-564.3" font-family="Times,serif" font-size="14.00">email :varchar(255)</text>
<text text-anchor="start" x="760" y="-549.3" font-family="Times,serif" font-size="14.00">password :varchar(255)</text>
<text text-anchor="start" x="760" y="-534.3" font-family="Times,serif" font-size="14.00">team_id :int(11)</text>
<text text-anchor="start" x="760" y="-519.3" font-family="Times,serif" font-size="14.00">role :tinyint(4)</text>
<text text-anchor="start" x="760" y="-504.3" font-family="Times,serif" font-size="14.00">mobile :varchar(32)</text>
<text text-anchor="start" x="760" y="-489.3" font-family="Times,serif" font-size="14.00">email_verified :tinyint(4)</text>
<text text-anchor="start" x="760" y="-474.3" font-family="Times,serif" font-size="14.00">mobile_verified :tinyint(4)</text>
<text text-anchor="start" x="760" y="-459.3" font-family="Times,serif" font-size="14.00">created :datetime</text>
<text text-anchor="start" x="760" y="-444.3" font-family="Times,serif" font-size="14.00">updated :datetime</text>
<text text-anchor="start" x="760" y="-429.3" font-family="Times,serif" font-size="14.00">inactive :tinyint(4)</text>
<text text-anchor="start" x="760" y="-414.3" font-family="Times,serif" font-size="14.00">full_name :varchar(255)</text>
<text text-anchor="start" x="760" y="-399.3" font-family="Times,serif" font-size="14.00">profile :varchar(512)</text>
<text text-anchor="start" x="760" y="-384.3" font-family="Times,serif" font-size="14.00">type :tinyint(4)</text>
</g>
<!-- ApplicationRecord -->
<g id="node7" class="node"><title>ApplicationRecord</title>
<ellipse fill="none" stroke="black" cx="1009" cy="-512" rx="77.1866" ry="18"/>
<text text-anchor="middle" x="1009" y="-508.3" font-family="Times,serif" font-size="14.00">ApplicationRecord</text>
</g>
<!-- User -->
<g id="node8" class="node"><title>User</title>
<path fill="none" stroke="black" d="M244,-444C244,-444 404,-444 404,-444 410,-444 416,-450 416,-456 416,-456 416,-568 416,-568 416,-574 410,-580 404,-580 404,-580 244,-580 244,-580 238,-580 232,-574 232,-568 232,-568 232,-456 232,-456 232,-450 238,-444 244,-444"/>
<text text-anchor="middle" x="324" y="-564.8" font-family="Times,serif" font-size="14.00">User</text>
<polyline fill="none" stroke="black" points="232,-557 416,-557 "/>
<text text-anchor="start" x="240" y="-541.8" font-family="Times,serif" font-size="14.00">id :bigint(20)</text>
<text text-anchor="start" x="240" y="-526.8" font-family="Times,serif" font-size="14.00">name :varchar(255)</text>
<text text-anchor="start" x="240" y="-511.8" font-family="Times,serif" font-size="14.00">password :varchar(255)</text>
<text text-anchor="start" x="240" y="-496.8" font-family="Times,serif" font-size="14.00">created_at :datetime</text>
<text text-anchor="start" x="240" y="-481.8" font-family="Times,serif" font-size="14.00">updated_at :datetime</text>
<text text-anchor="start" x="240" y="-466.8" font-family="Times,serif" font-size="14.00">email :varchar(255)</text>
<text text-anchor="start" x="240" y="-451.8" font-family="Times,serif" font-size="14.00">password_digest :varchar(255)</text>
</g>
<!-- User&#45;&gt;Feedback -->
<g id="edge3" class="edge"><title>User&#45;&gt;Feedback</title>
<path fill="none" stroke="#14d318" d="M324,-435.253C324,-360.073 324,-245.399 324,-169.584"/>
<ellipse fill="none" stroke="#14d318" cx="324" cy="-439.68" rx="4" ry="4"/>
<polygon fill="#14d318" stroke="#14d318" points="324,-169.153 328.5,-159.152 324,-164.153 324,-159.153 324,-159.153 324,-159.153 324,-164.153 319.5,-159.153 324,-169.153 324,-169.153"/>
</g>
<!-- User&#45;&gt;Customer -->
<g id="edge2" class="edge"><title>User&#45;&gt;Customer</title>
<path fill="none" stroke="#32919b" d="M373.838,-435.259C392.236,-407.299 412.964,-375.798 430.917,-348.514"/>
<polygon fill="#32919b" stroke="#32919b" points="373.666,-435.521 364.41,-441.401 370.917,-439.698 368.169,-443.875 368.169,-443.875 368.169,-443.875 370.917,-439.698 371.928,-446.349 373.666,-435.521 373.666,-435.521"/>
<polygon fill="#32919b" stroke="#32919b" points="431.145,-348.168 440.401,-342.287 433.893,-343.991 436.642,-339.814 436.642,-339.814 436.642,-339.814 433.893,-343.991 432.883,-337.34 431.145,-348.168 431.145,-348.168"/>
</g>
<!-- Customer&#45;&gt;Feedback -->
<g id="edge4" class="edge"><title>Customer&#45;&gt;Feedback</title>
<path fill="none" stroke="#74d0a6" d="M422.149,-212.104C410.166,-197.44 397.379,-181.793 385.128,-166.801"/>
<ellipse fill="none" stroke="#74d0a6" cx="424.748" cy="-215.284" rx="4.00002" ry="4.00002"/>
<polygon fill="#74d0a6" stroke="#74d0a6" points="385.105,-166.773 382.262,-156.183 381.941,-162.902 378.777,-159.03 378.777,-159.03 378.777,-159.03 381.941,-162.902 375.293,-161.878 385.105,-166.773 385.105,-166.773"/>
</g>
<!-- Customer&#45;&gt;Description -->
<g id="edge5" class="edge"><title>Customer&#45;&gt;Description</title>
<path fill="none" stroke="#ea85ab" d="M489.827,-210.322C491.191,-203.645 492.593,-196.78 494.003,-189.879"/>
<ellipse fill="none" stroke="#ea85ab" cx="488.981" cy="-214.462" rx="4.00001" ry="4.00001"/>
<ellipse fill="#ea85ab" stroke="#ea85ab" cx="494.859" cy="-185.689" rx="4.00001" ry="4.00001"/>
</g>
</g>
</svg>
